<svg width="83" height="24" viewBox="0 0 83 24" fill="none" xmlns="http://www.w3.org/2000/svg">
<mask id="path-1-outside-1_171_31" maskUnits="userSpaceOnUse" x="-0.409668" y="0.640015" width="84" height="24" fill="black">
<rect fill="white" x="-0.409668" y="0.640015" width="84" height="24"/>
<path d="M0.260957 23.736V22.936L0.900957 22.872C1.64762 22.7867 2.21296 22.68 2.59696 22.552C3.00229 22.4027 3.27962 22.104 3.42896 21.656C3.57829 21.1867 3.65296 20.4293 3.65296 19.384V5.17601C3.65296 4.10935 3.57829 3.35201 3.42896 2.90401C3.27962 2.45601 3.00229 2.16801 2.59696 2.04001C2.21296 1.89068 1.64762 1.77335 0.900957 1.68801L0.260957 1.62401V0.824013L4.99696 0.920013H8.90096C9.47696 0.920013 10.149 0.941347 10.917 0.984015C11.685 1.02668 12.453 1.13335 13.221 1.30401C14.0103 1.45335 14.7356 1.72001 15.397 2.10401C16.0796 2.46668 16.6236 2.97868 17.029 3.64001C17.4556 4.28001 17.669 5.11201 17.669 6.13601C17.669 7.11735 17.4343 7.96001 16.965 8.66401C16.517 9.36801 15.941 9.95468 15.237 10.424C14.5543 10.872 13.8396 11.224 13.093 11.48C14.117 11.5653 15.077 11.8 15.973 12.184C16.869 12.568 17.5943 13.1653 18.149 13.976C18.725 14.7653 19.013 15.832 19.013 17.176C19.013 18.4133 18.7676 19.4587 18.277 20.312C17.8076 21.144 17.1676 21.8053 16.357 22.296C15.5463 22.7653 14.6503 23.1067 13.669 23.32C12.6876 23.5333 11.6956 23.64 10.693 23.64H4.99696L0.260957 23.736ZM9.86096 1.81601H6.24496V11.256H10.501C11.8236 11.256 12.8476 10.8293 13.573 9.97601C14.3196 9.12268 14.693 7.84268 14.693 6.13601C14.693 4.92001 14.501 4.00268 14.117 3.38401C13.733 2.76535 13.1783 2.34935 12.453 2.13601C11.749 1.92268 10.885 1.81601 9.86096 1.81601ZM8.90096 22.744H10.693C11.7596 22.744 12.6876 22.5947 13.477 22.296C14.2876 21.9973 14.9063 21.4533 15.333 20.664C15.781 19.8533 16.005 18.7013 16.005 17.208C16.005 15.7573 15.7596 14.6693 15.269 13.944C14.7783 13.2187 14.0316 12.7387 13.029 12.504C12.0263 12.2693 10.757 12.152 9.22096 12.152H6.24496V19.512C6.24496 20.792 6.45829 21.656 6.88496 22.104C7.33296 22.5307 8.00496 22.744 8.90096 22.744ZM21.8145 23.736V23L22.3265 22.936C22.9451 22.8507 23.4145 22.7547 23.7345 22.648C24.0758 22.52 24.3105 22.2533 24.4385 21.848C24.5665 21.4213 24.6305 20.728 24.6305 19.768V13.016C24.6305 11.9067 24.3958 11.2027 23.9265 10.904C23.4785 10.584 22.8491 10.424 22.0385 10.424H21.8145V9.68801C22.6891 9.68801 23.5318 9.66668 24.3425 9.62401C25.1531 9.56001 25.9958 9.45335 26.8705 9.30401V19.768C26.8705 20.728 26.9345 21.4213 27.0625 21.848C27.1905 22.2533 27.4145 22.52 27.7345 22.648C28.0758 22.7547 28.5558 22.8507 29.1745 22.936L29.6865 23V23.736L25.7505 23.64L21.8145 23.736ZM25.3665 5.56001C24.8118 5.56001 24.3745 5.36801 24.0545 4.98401C23.7345 4.60001 23.5745 4.14135 23.5745 3.60801C23.5745 3.05335 23.7345 2.59468 24.0545 2.23201C24.3745 1.84801 24.8118 1.65601 25.3665 1.65601C25.9851 1.65601 26.4331 1.84801 26.7105 2.23201C27.0091 2.59468 27.1585 3.05335 27.1585 3.60801C27.1585 4.14135 27.0091 4.60001 26.7105 4.98401C26.4331 5.36801 25.9851 5.56001 25.3665 5.56001ZM30.9082 23.736V23L31.4202 22.936C32.0389 22.8507 32.5082 22.7547 32.8282 22.648C33.1695 22.52 33.4042 22.2533 33.5322 21.848C33.6602 21.4213 33.7242 20.728 33.7242 19.768V13.112C33.7242 12.28 33.6069 11.672 33.3722 11.288C33.1589 10.904 32.8389 10.6693 32.4122 10.584C31.9855 10.4773 31.4842 10.424 30.9082 10.424V9.68801C31.7829 9.68801 32.6255 9.65601 33.4362 9.59201C34.2469 9.52801 35.0895 9.43201 35.9642 9.30401L35.6122 12.984H35.7402C36.2095 11.5547 36.7855 10.552 37.4682 9.97601C38.1509 9.40001 38.8869 9.11201 39.6762 9.11201C40.5722 9.11201 41.1695 9.33601 41.4682 9.78401C41.7669 10.2107 41.9162 10.6267 41.9162 11.032C41.9162 11.5013 41.7775 11.8853 41.5002 12.184C41.2229 12.4827 40.8495 12.632 40.3802 12.632C39.9322 12.632 39.5909 12.5253 39.3562 12.312C39.1215 12.0987 39.0042 11.8533 39.0042 11.576C39.0042 11.3627 39.0255 11.16 39.0682 10.968C39.1322 10.776 39.1642 10.6267 39.1642 10.52C39.1642 10.3067 39.0149 10.2 38.7162 10.2C38.4175 10.2 38.0975 10.3387 37.7562 10.616C37.4362 10.8933 37.1589 11.2773 36.9242 11.768C36.7322 12.1733 36.5509 12.6213 36.3802 13.112C36.2095 13.6027 36.0709 14.136 35.9642 14.712V19.768C35.9642 20.728 36.0282 21.4213 36.1562 21.848C36.2842 22.2533 36.5082 22.52 36.8282 22.648C37.1695 22.7547 37.6495 22.8507 38.2682 22.936L38.7802 23V23.736L34.8442 23.64L30.9082 23.736ZM43.4395 23.736V23L43.9515 22.936C44.5701 22.8507 45.0395 22.7547 45.3595 22.648C45.7008 22.52 45.9355 22.2533 46.0635 21.848C46.1915 21.4213 46.2555 20.728 46.2555 19.768V13.112C46.2555 12.28 46.1381 11.672 45.9035 11.288C45.6901 10.904 45.3701 10.6693 44.9435 10.584C44.5168 10.4773 44.0155 10.424 43.4395 10.424V9.68801C44.3141 9.68801 45.1568 9.65601 45.9675 9.59201C46.7781 9.52801 47.6208 9.43201 48.4955 9.30401L48.1435 12.984H48.2715C48.7408 11.5547 49.3168 10.552 49.9995 9.97601C50.6821 9.40001 51.4181 9.11201 52.2075 9.11201C53.1035 9.11201 53.7008 9.33601 53.9995 9.78401C54.2981 10.2107 54.4475 10.6267 54.4475 11.032C54.4475 11.5013 54.3088 11.8853 54.0315 12.184C53.7541 12.4827 53.3808 12.632 52.9115 12.632C52.4635 12.632 52.1221 12.5253 51.8875 12.312C51.6528 12.0987 51.5355 11.8533 51.5355 11.576C51.5355 11.3627 51.5568 11.16 51.5995 10.968C51.6635 10.776 51.6955 10.6267 51.6955 10.52C51.6955 10.3067 51.5461 10.2 51.2475 10.2C50.9488 10.2 50.6288 10.3387 50.2875 10.616C49.9675 10.8933 49.6901 11.2773 49.4555 11.768C49.2635 12.1733 49.0821 12.6213 48.9115 13.112C48.7408 13.6027 48.6021 14.136 48.4955 14.712V19.768C48.4955 20.728 48.5595 21.4213 48.6875 21.848C48.8155 22.2533 49.0395 22.52 49.3595 22.648C49.7008 22.7547 50.1808 22.8507 50.7995 22.936L51.3115 23V23.736L47.3755 23.64L43.4395 23.736ZM55.9707 23.736V23L56.4827 22.936C57.1014 22.8507 57.5707 22.7547 57.8907 22.648C58.232 22.52 58.4667 22.2533 58.5947 21.848C58.7227 21.4213 58.7867 20.728 58.7867 19.768V13.016C58.7867 11.9067 58.552 11.2027 58.0827 10.904C57.6347 10.584 57.0054 10.424 56.1947 10.424H55.9707V9.68801C56.8454 9.68801 57.688 9.66668 58.4987 9.62401C59.3094 9.56001 60.152 9.45335 61.0267 9.30401V19.768C61.0267 20.728 61.0907 21.4213 61.2187 21.848C61.3467 22.2533 61.5707 22.52 61.8907 22.648C62.232 22.7547 62.712 22.8507 63.3307 22.936L63.8427 23V23.736L59.9067 23.64L55.9707 23.736ZM59.5227 5.56001C58.968 5.56001 58.5307 5.36801 58.2107 4.98401C57.8907 4.60001 57.7307 4.14135 57.7307 3.60801C57.7307 3.05335 57.8907 2.59468 58.2107 2.23201C58.5307 1.84801 58.968 1.65601 59.5227 1.65601C60.1414 1.65601 60.5894 1.84801 60.8667 2.23201C61.1654 2.59468 61.3147 3.05335 61.3147 3.60801C61.3147 4.14135 61.1654 4.60001 60.8667 4.98401C60.5894 5.36801 60.1414 5.56001 59.5227 5.56001ZM65.0645 23.736V23L65.5765 22.936C66.1951 22.8507 66.6645 22.7547 66.9845 22.648C67.3258 22.52 67.5605 22.2533 67.6885 21.848C67.8165 21.4213 67.8805 20.728 67.8805 19.768V13.016C67.8805 11.9067 67.6458 11.2027 67.1765 10.904C66.7285 10.584 66.0991 10.424 65.2885 10.424H65.0645V9.68801C65.9391 9.68801 66.7818 9.66668 67.5925 9.62401C68.4031 9.56001 69.2458 9.45335 70.1205 9.30401V11.896C70.6111 11.1707 71.3045 10.5307 72.2005 9.97601C73.0965 9.40001 74.1418 9.11201 75.3365 9.11201C76.7871 9.11201 77.9285 9.48535 78.7605 10.232C79.6138 10.9573 80.0405 12.0027 80.0405 13.368V19.768C80.0405 20.728 80.1045 21.4213 80.2325 21.848C80.3605 22.2533 80.5845 22.52 80.9045 22.648C81.2458 22.7547 81.7258 22.8507 82.3445 22.936L82.8565 23V23.736L78.9205 23.64L74.9845 23.736V23L75.4965 22.936C76.1151 22.8507 76.5845 22.7547 76.9045 22.648C77.2458 22.52 77.4805 22.2533 77.6085 21.848C77.7365 21.4213 77.8005 20.728 77.8005 19.768V13.368C77.8005 12.3013 77.5231 11.4907 76.9685 10.936C76.4138 10.36 75.6351 10.072 74.6325 10.072C73.8645 10.072 73.1711 10.2533 72.5525 10.616C71.9338 10.9573 71.4218 11.384 71.0165 11.896C70.6111 12.408 70.3125 12.8987 70.1205 13.368V19.768C70.1205 20.728 70.1845 21.4213 70.3125 21.848C70.4405 22.2533 70.6645 22.52 70.9845 22.648C71.3258 22.7547 71.8058 22.8507 72.4245 22.936L72.9365 23V23.736L69.0005 23.64L65.0645 23.736Z"/>
</mask>
<path d="M0.260957 23.736V22.936L0.900957 22.872C1.64762 22.7867 2.21296 22.68 2.59696 22.552C3.00229 22.4027 3.27962 22.104 3.42896 21.656C3.57829 21.1867 3.65296 20.4293 3.65296 19.384V5.17601C3.65296 4.10935 3.57829 3.35201 3.42896 2.90401C3.27962 2.45601 3.00229 2.16801 2.59696 2.04001C2.21296 1.89068 1.64762 1.77335 0.900957 1.68801L0.260957 1.62401V0.824013L4.99696 0.920013H8.90096C9.47696 0.920013 10.149 0.941347 10.917 0.984015C11.685 1.02668 12.453 1.13335 13.221 1.30401C14.0103 1.45335 14.7356 1.72001 15.397 2.10401C16.0796 2.46668 16.6236 2.97868 17.029 3.64001C17.4556 4.28001 17.669 5.11201 17.669 6.13601C17.669 7.11735 17.4343 7.96001 16.965 8.66401C16.517 9.36801 15.941 9.95468 15.237 10.424C14.5543 10.872 13.8396 11.224 13.093 11.48C14.117 11.5653 15.077 11.8 15.973 12.184C16.869 12.568 17.5943 13.1653 18.149 13.976C18.725 14.7653 19.013 15.832 19.013 17.176C19.013 18.4133 18.7676 19.4587 18.277 20.312C17.8076 21.144 17.1676 21.8053 16.357 22.296C15.5463 22.7653 14.6503 23.1067 13.669 23.32C12.6876 23.5333 11.6956 23.64 10.693 23.64H4.99696L0.260957 23.736ZM9.86096 1.81601H6.24496V11.256H10.501C11.8236 11.256 12.8476 10.8293 13.573 9.97601C14.3196 9.12268 14.693 7.84268 14.693 6.13601C14.693 4.92001 14.501 4.00268 14.117 3.38401C13.733 2.76535 13.1783 2.34935 12.453 2.13601C11.749 1.92268 10.885 1.81601 9.86096 1.81601ZM8.90096 22.744H10.693C11.7596 22.744 12.6876 22.5947 13.477 22.296C14.2876 21.9973 14.9063 21.4533 15.333 20.664C15.781 19.8533 16.005 18.7013 16.005 17.208C16.005 15.7573 15.7596 14.6693 15.269 13.944C14.7783 13.2187 14.0316 12.7387 13.029 12.504C12.0263 12.2693 10.757 12.152 9.22096 12.152H6.24496V19.512C6.24496 20.792 6.45829 21.656 6.88496 22.104C7.33296 22.5307 8.00496 22.744 8.90096 22.744ZM21.8145 23.736V23L22.3265 22.936C22.9451 22.8507 23.4145 22.7547 23.7345 22.648C24.0758 22.52 24.3105 22.2533 24.4385 21.848C24.5665 21.4213 24.6305 20.728 24.6305 19.768V13.016C24.6305 11.9067 24.3958 11.2027 23.9265 10.904C23.4785 10.584 22.8491 10.424 22.0385 10.424H21.8145V9.68801C22.6891 9.68801 23.5318 9.66668 24.3425 9.62401C25.1531 9.56001 25.9958 9.45335 26.8705 9.30401V19.768C26.8705 20.728 26.9345 21.4213 27.0625 21.848C27.1905 22.2533 27.4145 22.52 27.7345 22.648C28.0758 22.7547 28.5558 22.8507 29.1745 22.936L29.6865 23V23.736L25.7505 23.64L21.8145 23.736ZM25.3665 5.56001C24.8118 5.56001 24.3745 5.36801 24.0545 4.98401C23.7345 4.60001 23.5745 4.14135 23.5745 3.60801C23.5745 3.05335 23.7345 2.59468 24.0545 2.23201C24.3745 1.84801 24.8118 1.65601 25.3665 1.65601C25.9851 1.65601 26.4331 1.84801 26.7105 2.23201C27.0091 2.59468 27.1585 3.05335 27.1585 3.60801C27.1585 4.14135 27.0091 4.60001 26.7105 4.98401C26.4331 5.36801 25.9851 5.56001 25.3665 5.56001ZM30.9082 23.736V23L31.4202 22.936C32.0389 22.8507 32.5082 22.7547 32.8282 22.648C33.1695 22.52 33.4042 22.2533 33.5322 21.848C33.6602 21.4213 33.7242 20.728 33.7242 19.768V13.112C33.7242 12.28 33.6069 11.672 33.3722 11.288C33.1589 10.904 32.8389 10.6693 32.4122 10.584C31.9855 10.4773 31.4842 10.424 30.9082 10.424V9.68801C31.7829 9.68801 32.6255 9.65601 33.4362 9.59201C34.2469 9.52801 35.0895 9.43201 35.9642 9.30401L35.6122 12.984H35.7402C36.2095 11.5547 36.7855 10.552 37.4682 9.97601C38.1509 9.40001 38.8869 9.11201 39.6762 9.11201C40.5722 9.11201 41.1695 9.33601 41.4682 9.78401C41.7669 10.2107 41.9162 10.6267 41.9162 11.032C41.9162 11.5013 41.7775 11.8853 41.5002 12.184C41.2229 12.4827 40.8495 12.632 40.3802 12.632C39.9322 12.632 39.5909 12.5253 39.3562 12.312C39.1215 12.0987 39.0042 11.8533 39.0042 11.576C39.0042 11.3627 39.0255 11.16 39.0682 10.968C39.1322 10.776 39.1642 10.6267 39.1642 10.52C39.1642 10.3067 39.0149 10.2 38.7162 10.2C38.4175 10.2 38.0975 10.3387 37.7562 10.616C37.4362 10.8933 37.1589 11.2773 36.9242 11.768C36.7322 12.1733 36.5509 12.6213 36.3802 13.112C36.2095 13.6027 36.0709 14.136 35.9642 14.712V19.768C35.9642 20.728 36.0282 21.4213 36.1562 21.848C36.2842 22.2533 36.5082 22.52 36.8282 22.648C37.1695 22.7547 37.6495 22.8507 38.2682 22.936L38.7802 23V23.736L34.8442 23.64L30.9082 23.736ZM43.4395 23.736V23L43.9515 22.936C44.5701 22.8507 45.0395 22.7547 45.3595 22.648C45.7008 22.52 45.9355 22.2533 46.0635 21.848C46.1915 21.4213 46.2555 20.728 46.2555 19.768V13.112C46.2555 12.28 46.1381 11.672 45.9035 11.288C45.6901 10.904 45.3701 10.6693 44.9435 10.584C44.5168 10.4773 44.0155 10.424 43.4395 10.424V9.68801C44.3141 9.68801 45.1568 9.65601 45.9675 9.59201C46.7781 9.52801 47.6208 9.43201 48.4955 9.30401L48.1435 12.984H48.2715C48.7408 11.5547 49.3168 10.552 49.9995 9.97601C50.6821 9.40001 51.4181 9.11201 52.2075 9.11201C53.1035 9.11201 53.7008 9.33601 53.9995 9.78401C54.2981 10.2107 54.4475 10.6267 54.4475 11.032C54.4475 11.5013 54.3088 11.8853 54.0315 12.184C53.7541 12.4827 53.3808 12.632 52.9115 12.632C52.4635 12.632 52.1221 12.5253 51.8875 12.312C51.6528 12.0987 51.5355 11.8533 51.5355 11.576C51.5355 11.3627 51.5568 11.16 51.5995 10.968C51.6635 10.776 51.6955 10.6267 51.6955 10.52C51.6955 10.3067 51.5461 10.2 51.2475 10.2C50.9488 10.2 50.6288 10.3387 50.2875 10.616C49.9675 10.8933 49.6901 11.2773 49.4555 11.768C49.2635 12.1733 49.0821 12.6213 48.9115 13.112C48.7408 13.6027 48.6021 14.136 48.4955 14.712V19.768C48.4955 20.728 48.5595 21.4213 48.6875 21.848C48.8155 22.2533 49.0395 22.52 49.3595 22.648C49.7008 22.7547 50.1808 22.8507 50.7995 22.936L51.3115 23V23.736L47.3755 23.64L43.4395 23.736ZM55.9707 23.736V23L56.4827 22.936C57.1014 22.8507 57.5707 22.7547 57.8907 22.648C58.232 22.52 58.4667 22.2533 58.5947 21.848C58.7227 21.4213 58.7867 20.728 58.7867 19.768V13.016C58.7867 11.9067 58.552 11.2027 58.0827 10.904C57.6347 10.584 57.0054 10.424 56.1947 10.424H55.9707V9.68801C56.8454 9.68801 57.688 9.66668 58.4987 9.62401C59.3094 9.56001 60.152 9.45335 61.0267 9.30401V19.768C61.0267 20.728 61.0907 21.4213 61.2187 21.848C61.3467 22.2533 61.5707 22.52 61.8907 22.648C62.232 22.7547 62.712 22.8507 63.3307 22.936L63.8427 23V23.736L59.9067 23.64L55.9707 23.736ZM59.5227 5.56001C58.968 5.56001 58.5307 5.36801 58.2107 4.98401C57.8907 4.60001 57.7307 4.14135 57.7307 3.60801C57.7307 3.05335 57.8907 2.59468 58.2107 2.23201C58.5307 1.84801 58.968 1.65601 59.5227 1.65601C60.1414 1.65601 60.5894 1.84801 60.8667 2.23201C61.1654 2.59468 61.3147 3.05335 61.3147 3.60801C61.3147 4.14135 61.1654 4.60001 60.8667 4.98401C60.5894 5.36801 60.1414 5.56001 59.5227 5.56001ZM65.0645 23.736V23L65.5765 22.936C66.1951 22.8507 66.6645 22.7547 66.9845 22.648C67.3258 22.52 67.5605 22.2533 67.6885 21.848C67.8165 21.4213 67.8805 20.728 67.8805 19.768V13.016C67.8805 11.9067 67.6458 11.2027 67.1765 10.904C66.7285 10.584 66.0991 10.424 65.2885 10.424H65.0645V9.68801C65.9391 9.68801 66.7818 9.66668 67.5925 9.62401C68.4031 9.56001 69.2458 9.45335 70.1205 9.30401V11.896C70.6111 11.1707 71.3045 10.5307 72.2005 9.97601C73.0965 9.40001 74.1418 9.11201 75.3365 9.11201C76.7871 9.11201 77.9285 9.48535 78.7605 10.232C79.6138 10.9573 80.0405 12.0027 80.0405 13.368V19.768C80.0405 20.728 80.1045 21.4213 80.2325 21.848C80.3605 22.2533 80.5845 22.52 80.9045 22.648C81.2458 22.7547 81.7258 22.8507 82.3445 22.936L82.8565 23V23.736L78.9205 23.64L74.9845 23.736V23L75.4965 22.936C76.1151 22.8507 76.5845 22.7547 76.9045 22.648C77.2458 22.52 77.4805 22.2533 77.6085 21.848C77.7365 21.4213 77.8005 20.728 77.8005 19.768V13.368C77.8005 12.3013 77.5231 11.4907 76.9685 10.936C76.4138 10.36 75.6351 10.072 74.6325 10.072C73.8645 10.072 73.1711 10.2533 72.5525 10.616C71.9338 10.9573 71.4218 11.384 71.0165 11.896C70.6111 12.408 70.3125 12.8987 70.1205 13.368V19.768C70.1205 20.728 70.1845 21.4213 70.3125 21.848C70.4405 22.2533 70.6645 22.52 70.9845 22.648C71.3258 22.7547 71.8058 22.8507 72.4245 22.936L72.9365 23V23.736L69.0005 23.64L65.0645 23.736Z" fill="#D98504"/>
<path d="M0.260957 23.736H0.160957V23.8381L0.262984 23.836L0.260957 23.736ZM0.260957 22.936L0.251007 22.8365L0.160957 22.8455V22.936H0.260957ZM0.900957 22.872L0.910908 22.9715L0.912312 22.9714L0.900957 22.872ZM2.59696 22.552L2.6286 22.6469L2.63153 22.6458L2.59696 22.552ZM3.42896 21.656L3.52383 21.6876L3.52425 21.6863L3.42896 21.656ZM3.42896 2.90401L3.33409 2.93564L3.42896 2.90401ZM2.59696 2.04001L2.56064 2.13341L2.56684 2.13537L2.59696 2.04001ZM0.900957 1.68801L0.912313 1.58865L0.910907 1.58851L0.900957 1.68801ZM0.260957 1.62401H0.160957V1.71451L0.251007 1.72352L0.260957 1.62401ZM0.260957 0.824013L0.262984 0.724033L0.160957 0.721965V0.824013H0.260957ZM4.99696 0.920013L4.99493 1.02001H4.99696V0.920013ZM10.917 0.984015L10.9114 1.08386H10.9114L10.917 0.984015ZM13.221 1.30401L13.1993 1.40168L13.2024 1.40227L13.221 1.30401ZM15.397 2.10401L15.3467 2.19055L15.35 2.19232L15.397 2.10401ZM17.029 3.64001L16.9436 3.69231L16.9458 3.69549L17.029 3.64001ZM16.965 8.66401L16.8817 8.60853L16.8806 8.61033L16.965 8.66401ZM15.237 10.424L15.2918 10.5076L15.2924 10.5072L15.237 10.424ZM13.093 11.48L13.0605 11.3854L13.0847 11.5797L13.093 11.48ZM18.149 13.976L18.0664 14.0325L18.0682 14.035L18.149 13.976ZM18.277 20.312L18.1903 20.2622L18.1899 20.2629L18.277 20.312ZM16.357 22.296L16.4071 22.3826L16.4087 22.3816L16.357 22.296ZM13.669 23.32L13.6902 23.4177L13.669 23.32ZM4.99696 23.64V23.54L4.99493 23.54L4.99696 23.64ZM6.24496 1.81601V1.71601H6.14496V1.81601H6.24496ZM6.24496 11.256H6.14496V11.356H6.24496V11.256ZM13.573 9.97601L13.4977 9.91016L13.4968 9.91125L13.573 9.97601ZM14.117 3.38401L14.032 3.43675L14.117 3.38401ZM12.453 2.13601L12.424 2.23172L12.4247 2.23195L12.453 2.13601ZM13.477 22.296L13.4424 22.2022L13.4416 22.2025L13.477 22.296ZM15.333 20.664L15.2454 20.6156L15.245 20.6165L15.333 20.664ZM15.269 13.944L15.1861 14L15.269 13.944ZM13.029 12.504L13.0062 12.6014L13.029 12.504ZM6.24496 12.152V12.052H6.14496V12.152H6.24496ZM6.88496 22.104L6.81246 22.1731L6.81599 22.1764L6.88496 22.104ZM0.360957 23.736V22.936H0.160957V23.736H0.360957ZM0.270908 23.0355L0.910908 22.9715L0.891007 22.7725L0.251007 22.8365L0.270908 23.0355ZM0.912312 22.9714C1.66108 22.8858 2.23462 22.7782 2.62858 22.6469L2.56533 22.4571C2.1913 22.5818 1.63417 22.6876 0.889602 22.7727L0.912312 22.9714ZM2.63153 22.6458C3.06827 22.4849 3.36591 22.1614 3.52383 21.6876L3.33409 21.6244C3.19334 22.0466 2.93631 22.3204 2.56239 22.4582L2.63153 22.6458ZM3.52425 21.6863C3.67857 21.2013 3.75296 20.4308 3.75296 19.384H3.55296C3.55296 20.4279 3.47801 21.172 3.33366 21.6257L3.52425 21.6863ZM3.75296 19.384V5.17601H3.55296V19.384H3.75296ZM3.75296 5.17601C3.75296 4.10868 3.67871 3.33706 3.52383 2.87239L3.33409 2.93564C3.47787 3.36697 3.55296 4.11001 3.55296 5.17601H3.75296ZM3.52383 2.87239C3.36566 2.39791 3.06668 2.08348 2.62707 1.94466L2.56684 2.13537C2.93791 2.25255 3.19358 2.51412 3.33409 2.93564L3.52383 2.87239ZM2.6332 1.94681C2.23717 1.7928 1.66174 1.67431 0.912312 1.58866L0.889602 1.78737C1.63351 1.87239 2.18874 1.98856 2.56071 2.13321L2.6332 1.94681ZM0.910907 1.58851L0.270907 1.52451L0.251007 1.72352L0.891007 1.78752L0.910907 1.58851ZM0.360957 1.62401V0.824013H0.160957V1.62401H0.360957ZM0.25893 0.923992L4.99493 1.01999L4.99898 0.820034L0.262984 0.724033L0.25893 0.923992ZM4.99696 1.02001H8.90096V0.820013H4.99696V1.02001ZM8.90096 1.02001C9.47461 1.02001 10.1447 1.04126 10.9114 1.08386L10.9225 0.884169C10.1532 0.84143 9.4793 0.820013 8.90096 0.820013V1.02001ZM10.9114 1.08386C11.6739 1.12622 12.4365 1.23212 13.1993 1.40163L13.2427 1.2064C12.4695 1.03457 11.6961 0.927143 10.9225 0.884169L10.9114 1.08386ZM13.2024 1.40227C13.9811 1.54961 14.6957 1.81246 15.3467 2.19049L15.4472 2.01753C14.7756 1.62756 14.0394 1.35709 13.2395 1.20576L13.2024 1.40227ZM15.35 2.19232C16.0169 2.54658 16.5477 3.04611 16.9437 3.69227L17.1142 3.58776C16.6996 2.91125 16.1424 2.38678 15.4439 2.0157L15.35 2.19232ZM16.9458 3.69549C17.3584 4.31443 17.569 5.12534 17.569 6.13601H17.769C17.769 5.09868 17.5529 4.2456 17.1122 3.58454L16.9458 3.69549ZM17.569 6.13601C17.569 7.10084 17.3385 7.92347 16.8818 8.60854L17.0482 8.71948C17.5301 7.99656 17.769 7.13385 17.769 6.13601H17.569ZM16.8806 8.61033C16.4402 9.30242 15.8741 9.87909 15.1815 10.3408L15.2924 10.5072C16.0078 10.0303 16.5937 9.43361 17.0493 8.7177L16.8806 8.61033ZM15.1821 10.3404C14.5062 10.784 13.799 11.1322 13.0605 11.3854L13.1254 11.5746C13.8802 11.3158 14.6024 10.96 15.2918 10.5076L15.1821 10.3404ZM13.0847 11.5797C14.0985 11.6642 15.048 11.8964 15.9336 12.2759L16.0124 12.0921C15.1059 11.7036 14.1354 11.4665 13.1013 11.3804L13.0847 11.5797ZM15.9336 12.2759C16.812 12.6524 17.5224 13.2374 18.0664 14.0325L18.2315 13.9195C17.6662 13.0933 16.9259 12.4836 16.0124 12.0921L15.9336 12.2759ZM18.0682 14.035C18.6278 14.8018 18.913 15.8454 18.913 17.176H19.113C19.113 15.8186 18.8221 14.7289 18.2297 13.9171L18.0682 14.035ZM18.913 17.176C18.913 18.4003 18.6702 19.4274 18.1903 20.2622L18.3636 20.3619C18.865 19.4899 19.113 18.4264 19.113 17.176H18.913ZM18.1899 20.2629C17.7289 21.08 17.101 21.7288 16.3052 22.2105L16.4087 22.3816C17.2342 21.8819 17.8863 21.208 18.3641 20.3611L18.1899 20.2629ZM16.3069 22.2095C15.5058 22.6732 14.6196 23.011 13.6477 23.2223L13.6902 23.4177C14.6809 23.2024 15.5868 22.8575 16.4071 22.3826L16.3069 22.2095ZM13.6477 23.2223C12.6733 23.4341 11.6885 23.54 10.693 23.54V23.74C11.7028 23.74 12.7019 23.6326 13.6902 23.4177L13.6477 23.2223ZM10.693 23.54H4.99696V23.74H10.693V23.54ZM4.99493 23.54L0.258931 23.636L0.262984 23.836L4.99898 23.74L4.99493 23.54ZM9.86096 1.71601H6.24496V1.91601H9.86096V1.71601ZM6.14496 1.81601V11.256H6.34496V1.81601H6.14496ZM6.24496 11.356H10.501V11.156H6.24496V11.356ZM10.501 11.356C11.8471 11.356 12.9013 10.9206 13.6492 10.0408L13.4968 9.91125C12.7939 10.7381 11.8002 11.156 10.501 11.156V11.356ZM13.6482 10.0419C14.4172 9.16302 14.793 7.85506 14.793 6.13601H14.593C14.593 7.8303 14.222 9.08234 13.4977 9.91016L13.6482 10.0419ZM14.793 6.13601C14.793 4.91251 14.6003 3.97313 14.2019 3.33128L14.032 3.43675C14.4016 4.03223 14.593 4.92752 14.593 6.13601H14.793ZM14.2019 3.33128C13.8044 2.69086 13.2291 2.26005 12.4812 2.04008L12.4247 2.23195C13.1275 2.43864 13.6615 2.83983 14.032 3.43675L14.2019 3.33128ZM12.482 2.04031C11.7657 1.82326 10.8912 1.71601 9.86096 1.71601V1.91601C10.8787 1.91601 11.7322 2.0221 12.424 2.23172L12.482 2.04031ZM8.90096 22.844H10.693V22.644H8.90096V22.844ZM10.693 22.844C11.7687 22.844 12.7092 22.6935 13.5123 22.3895L13.4416 22.2025C12.6661 22.4959 11.7506 22.644 10.693 22.644V22.844ZM13.5115 22.3898C14.346 22.0824 14.9832 21.5214 15.4209 20.7116L15.245 20.6165C14.8294 21.3853 14.2293 21.9123 13.4424 22.2022L13.5115 22.3898ZM15.4205 20.7124C15.8802 19.8805 16.105 18.709 16.105 17.208H15.905C15.905 18.6937 15.6817 19.8262 15.2454 20.6156L15.4205 20.7124ZM16.105 17.208C16.105 15.7492 15.8588 14.6375 15.3518 13.888L15.1861 14C15.6604 14.7012 15.905 15.7655 15.905 17.208H16.105ZM15.3518 13.888C14.8446 13.1382 14.0743 12.646 13.0517 12.4066L13.0062 12.6014C13.9889 12.8314 14.712 13.2992 15.1861 14L15.3518 13.888ZM13.0517 12.4066C12.0389 12.1696 10.7613 12.052 9.22096 12.052V12.252C10.7526 12.252 12.0137 12.3691 13.0062 12.6014L13.0517 12.4066ZM9.22096 12.052H6.24496V12.252H9.22096V12.052ZM6.14496 12.152V19.512H6.34496V12.152H6.14496ZM6.14496 19.512C6.14496 20.1569 6.19863 20.7015 6.30787 21.144C6.41699 21.5859 6.58308 21.932 6.81254 22.173L6.95737 22.035C6.76016 21.828 6.60626 21.5181 6.50204 21.096C6.39795 20.6745 6.34496 20.1471 6.34496 19.512H6.14496ZM6.81599 22.1764C7.28949 22.6274 7.99073 22.844 8.90096 22.844V22.644C8.01919 22.644 7.37643 22.434 6.95392 22.0316L6.81599 22.1764ZM21.8145 23.736H21.7145V23.8385L21.8169 23.836L21.8145 23.736ZM21.8145 23L21.8021 22.9008L21.7145 22.9117V23H21.8145ZM22.3265 22.936L22.3389 23.0352L22.3401 23.0351L22.3265 22.936ZM23.7345 22.648L23.7661 22.7429L23.7696 22.7416L23.7345 22.648ZM24.4385 21.848L24.5338 21.8781L24.5342 21.8767L24.4385 21.848ZM23.9265 10.904L23.8682 10.9855L23.8728 10.9884L23.9265 10.904ZM21.8145 10.424H21.7145V10.524H21.8145V10.424ZM21.8145 9.68801V9.58801H21.7145V9.68801H21.8145ZM24.3425 9.62401L24.3477 9.72391L24.3503 9.7237L24.3425 9.62401ZM26.8705 9.30401H26.9705V9.18549L26.8536 9.20544L26.8705 9.30401ZM27.0625 21.848L26.9667 21.8768L26.9671 21.8781L27.0625 21.848ZM27.7345 22.648L27.6972 22.7411L27.7046 22.7435L27.7345 22.648ZM29.1745 22.936L29.1608 23.0351L29.1621 23.0352L29.1745 22.936ZM29.6865 23H29.7865V22.9117L29.6989 22.9008L29.6865 23ZM29.6865 23.736L29.684 23.836L29.7865 23.8385V23.736H29.6865ZM25.7505 23.64L25.7529 23.5399L25.748 23.54L25.7505 23.64ZM24.0545 2.23201L24.1295 2.2982L24.1313 2.29603L24.0545 2.23201ZM26.7105 2.23201L26.6292 2.29068L26.6333 2.29558L26.7105 2.23201ZM26.7105 4.98401L26.6315 4.92258L26.6294 4.92547L26.7105 4.98401ZM21.9145 23.736V23H21.7145V23.736H21.9145ZM21.8269 23.0992L22.3389 23.0352L22.3141 22.8368L21.8021 22.9008L21.8269 23.0992ZM22.3401 23.0351C22.9607 22.9495 23.4372 22.8525 23.7661 22.7429L23.7028 22.5531C23.3917 22.6569 22.9296 22.7519 22.3128 22.837L22.3401 23.0351ZM23.7696 22.7416C24.1447 22.601 24.3983 22.3073 24.5338 21.8781L24.3431 21.8179C24.2226 22.1994 24.0069 22.439 23.6993 22.5544L23.7696 22.7416ZM24.5342 21.8767C24.6667 21.4351 24.7305 20.7292 24.7305 19.768H24.5305C24.5305 20.7268 24.4662 21.4076 24.3427 21.8193L24.5342 21.8767ZM24.7305 19.768V13.016H24.5305V19.768H24.7305ZM24.7305 13.016C24.7305 12.4554 24.6713 11.9903 24.5493 11.6244C24.4272 11.2579 24.2398 10.9849 23.9801 10.8196L23.8728 10.9884C24.0824 11.1218 24.2471 11.3501 24.3596 11.6876C24.4723 12.0257 24.5305 12.4673 24.5305 13.016H24.7305ZM23.9846 10.8226C23.5133 10.486 22.8606 10.324 22.0385 10.324V10.524C22.8377 10.524 23.4436 10.682 23.8683 10.9854L23.9846 10.8226ZM22.0385 10.324H21.8145V10.524H22.0385V10.324ZM21.9145 10.424V9.68801H21.7145V10.424H21.9145ZM21.8145 9.78801C22.6907 9.78801 23.5352 9.76664 24.3477 9.72388L24.3372 9.52415C23.5284 9.56672 22.6875 9.58801 21.8145 9.58801V9.78801ZM24.3503 9.7237C25.1643 9.65945 26.0099 9.55238 26.8873 9.40259L26.8536 9.20544C25.9817 9.35431 25.142 9.46058 24.3346 9.52432L24.3503 9.7237ZM26.7705 9.30401V19.768H26.9705V9.30401H26.7705ZM26.7705 19.768C26.7705 20.7292 26.8342 21.4351 26.9667 21.8767L27.1582 21.8193C27.0347 21.4076 26.9705 20.7268 26.9705 19.768H26.7705ZM26.9671 21.8781C27.1018 22.3047 27.3431 22.5992 27.6973 22.7409L27.7716 22.5552C27.4858 22.4409 27.2791 22.202 27.1578 21.8179L26.9671 21.8781ZM27.7046 22.7435C28.0537 22.8526 28.54 22.9495 29.1608 23.0351L29.1881 22.837C28.5715 22.7519 28.0978 22.6568 27.7643 22.5526L27.7046 22.7435ZM29.1621 23.0352L29.6741 23.0992L29.6989 22.9008L29.1869 22.8368L29.1621 23.0352ZM29.5865 23V23.736H29.7865V23H29.5865ZM29.6889 23.636L25.7529 23.54L25.748 23.74L29.684 23.836L29.6889 23.636ZM25.748 23.54L21.812 23.636L21.8169 23.836L25.7529 23.74L25.748 23.54ZM25.3665 5.46001C24.8378 5.46001 24.43 5.27852 24.1313 4.92L23.9776 5.04803C24.3189 5.45751 24.7858 5.66002 25.3665 5.66002V5.46001ZM24.1313 4.92C23.8273 4.55522 23.6745 4.11964 23.6745 3.60801H23.4745C23.4745 4.16305 23.6416 4.6448 23.9776 5.04803L24.1313 4.92ZM23.6745 3.60801C23.6745 3.0739 23.8279 2.6399 24.1294 2.29818L23.9795 2.16585C23.641 2.54946 23.4745 3.03279 23.4745 3.60801H23.6745ZM24.1313 2.29603C24.43 1.93751 24.8378 1.75601 25.3665 1.75601V1.55601C24.7858 1.55601 24.3189 1.75851 23.9776 2.168L24.1313 2.29603ZM25.3665 1.75601C25.9638 1.75601 26.3764 1.94027 26.6294 2.29056L26.7915 2.17346C26.4898 1.75576 26.0064 1.55601 25.3665 1.55601V1.75601ZM26.6333 2.29558C26.9146 2.63723 27.0585 3.07216 27.0585 3.60801H27.2585C27.2585 3.03453 27.1036 2.55213 26.7877 2.16844L26.6333 2.29558ZM27.0585 3.60801C27.0585 4.12138 26.9152 4.55789 26.6315 4.92262L26.7894 5.04541C27.103 4.64214 27.2585 4.16131 27.2585 3.60801H27.0585ZM26.6294 4.92547C26.3764 5.27576 25.9638 5.46001 25.3665 5.46001V5.66002C26.0064 5.66002 26.4898 5.46027 26.7915 5.04256L26.6294 4.92547ZM30.9082 23.736H30.8082V23.8385L30.9106 23.836L30.9082 23.736ZM30.9082 23L30.8958 22.9008L30.8082 22.9117V23H30.9082ZM31.4202 22.936L31.4326 23.0352L31.4339 23.0351L31.4202 22.936ZM32.8282 22.648L32.8599 22.7429L32.8633 22.7416L32.8282 22.648ZM33.5322 21.848L33.6276 21.8781L33.628 21.8767L33.5322 21.848ZM33.3722 11.288L33.2847 11.3366L33.2869 11.3402L33.3722 11.288ZM32.4122 10.584L32.3879 10.6811L32.3926 10.6821L32.4122 10.584ZM30.9082 10.424H30.8082V10.524H30.9082V10.424ZM30.9082 9.68801V9.58801H30.8082V9.68801H30.9082ZM33.4362 9.59201L33.4441 9.6917L33.4362 9.59201ZM35.9642 9.30401L36.0638 9.31354L36.0759 9.18661L35.9497 9.20507L35.9642 9.30401ZM35.6122 12.984L35.5127 12.9745L35.5022 13.084H35.6122V12.984ZM35.7402 12.984V13.084H35.8126L35.8352 13.0152L35.7402 12.984ZM41.4682 9.78401L41.385 9.8395L41.3863 9.84136L41.4682 9.78401ZM41.5002 12.184L41.5735 12.2521L41.5002 12.184ZM39.3562 12.312L39.2889 12.386L39.3562 12.312ZM39.0682 10.968L38.9728 10.9362L38.9706 10.9463L39.0682 10.968ZM37.7562 10.616L37.6931 10.5384L37.6907 10.5404L37.7562 10.616ZM36.9242 11.768L36.834 11.7249L36.8338 11.7252L36.9242 11.768ZM35.9642 14.712L35.8659 14.6938L35.8642 14.7028V14.712H35.9642ZM36.1562 21.848L36.0604 21.8768L36.0608 21.8781L36.1562 21.848ZM36.8282 22.648L36.791 22.7411L36.7984 22.7435L36.8282 22.648ZM38.2682 22.936L38.2545 23.0351L38.2558 23.0352L38.2682 22.936ZM38.7802 23H38.8802V22.9117L38.7926 22.9008L38.7802 23ZM38.7802 23.736L38.7778 23.836L38.8802 23.8385V23.736H38.7802ZM34.8442 23.64L34.8466 23.5399L34.8418 23.54L34.8442 23.64ZM31.0082 23.736V23H30.8082V23.736H31.0082ZM30.9206 23.0992L31.4326 23.0352L31.4078 22.8368L30.8958 22.9008L30.9206 23.0992ZM31.4339 23.0351C32.0544 22.9495 32.531 22.8525 32.8598 22.7429L32.7966 22.5531C32.4854 22.6569 32.0233 22.7519 31.4065 22.837L31.4339 23.0351ZM32.8633 22.7416C33.2384 22.601 33.492 22.3073 33.6276 21.8781L33.4368 21.8179C33.3164 22.1994 33.1007 22.439 32.7931 22.5544L32.8633 22.7416ZM33.628 21.8767C33.7605 21.4351 33.8242 20.7292 33.8242 19.768H33.6242C33.6242 20.7268 33.5599 21.4076 33.4364 21.8193L33.628 21.8767ZM33.8242 19.768V13.112H33.6242V19.768H33.8242ZM33.8242 13.112C33.8242 12.2749 33.7069 11.644 33.4575 11.2359L33.2869 11.3402C33.5068 11.7001 33.6242 12.2851 33.6242 13.112H33.8242ZM33.4596 11.2395C33.2322 10.8301 32.8876 10.5771 32.4318 10.486L32.3926 10.6821C32.7902 10.7616 33.0855 10.9779 33.2848 11.3366L33.4596 11.2395ZM32.4365 10.487C31.9999 10.3778 31.49 10.324 30.9082 10.324V10.524C31.4784 10.524 31.9712 10.5768 32.388 10.681L32.4365 10.487ZM31.0082 10.424V9.68801H30.8082V10.424H31.0082ZM30.9082 9.78801C31.7853 9.78801 32.6306 9.75593 33.4441 9.6917L33.4283 9.49232C32.6205 9.5561 31.7804 9.58801 30.9082 9.58801V9.78801ZM33.4441 9.6917C34.2571 9.62752 35.102 9.53125 35.9787 9.40296L35.9497 9.20507C35.0771 9.33277 34.2366 9.42851 33.4283 9.49232L33.4441 9.6917ZM35.8647 9.29449L35.5127 12.9745L35.7118 12.9935L36.0638 9.31354L35.8647 9.29449ZM35.6122 13.084H35.7402V12.884H35.6122V13.084ZM35.8352 13.0152C36.3023 11.5928 36.8709 10.6109 37.5327 10.0524L37.4037 9.89959C36.7002 10.4932 36.1168 11.5166 35.6452 12.9528L35.8352 13.0152ZM37.5327 10.0524C38.1998 9.48954 38.9136 9.21201 39.6762 9.21201V9.01201C38.8602 9.01201 38.1019 9.31049 37.4037 9.89959L37.5327 10.0524ZM39.6762 9.21201C40.5613 9.21201 41.1146 9.43388 41.385 9.83948L41.5514 9.72854C41.2245 9.23815 40.5832 9.01201 39.6762 9.01201V9.21201ZM41.3863 9.84136C41.6765 10.256 41.8162 10.6523 41.8162 11.032H42.0162C42.0162 10.601 41.8572 10.1654 41.5501 9.72667L41.3863 9.84136ZM41.8162 11.032C41.8162 11.4802 41.6845 11.8386 41.4269 12.116L41.5735 12.2521C41.8706 11.9321 42.0162 11.5225 42.0162 11.032H41.8162ZM41.4269 12.116C41.1714 12.3911 40.8264 12.532 40.3802 12.532V12.732C40.8727 12.732 41.2743 12.5743 41.5735 12.2521L41.4269 12.116ZM40.3802 12.532C39.9468 12.532 39.6334 12.4288 39.4235 12.238L39.2889 12.386C39.5484 12.6219 39.9176 12.732 40.3802 12.732V12.532ZM39.4235 12.238C39.2064 12.0406 39.1042 11.821 39.1042 11.576H38.9042C38.9042 11.8857 39.0367 12.1567 39.2889 12.386L39.4235 12.238ZM39.1042 11.576C39.1042 11.3694 39.1249 11.174 39.1658 10.9897L38.9706 10.9463C38.9262 11.146 38.9042 11.356 38.9042 11.576H39.1042ZM39.1631 10.9996C39.228 10.8049 39.2642 10.6432 39.2642 10.52H39.0642C39.0642 10.6102 39.0364 10.7472 38.9733 10.9364L39.1631 10.9996ZM39.2642 10.52C39.2642 10.3871 39.2158 10.274 39.1103 10.1986C39.011 10.1277 38.8744 10.1 38.7162 10.1V10.3C38.8567 10.3 38.944 10.3256 38.9941 10.3614C39.0379 10.3927 39.0642 10.4396 39.0642 10.52H39.2642ZM38.7162 10.1C38.3859 10.1 38.0442 10.2532 37.6931 10.5384L37.8193 10.6936C38.1509 10.4242 38.4492 10.3 38.7162 10.3V10.1ZM37.6907 10.5404C37.3578 10.8289 37.073 11.2252 36.834 11.7249L37.0144 11.8112C37.2448 11.3295 37.5146 10.9578 37.8217 10.6916L37.6907 10.5404ZM36.8338 11.7252C36.6401 12.1342 36.4574 12.5856 36.2858 13.0792L36.4747 13.1449C36.6443 12.6571 36.8243 12.2125 37.0146 11.8108L36.8338 11.7252ZM36.2858 13.0792C36.1132 13.5752 35.9734 14.1134 35.8659 14.6938L36.0625 14.7302C36.1684 14.1586 36.3058 13.6302 36.4747 13.1449L36.2858 13.0792ZM35.8642 14.712V19.768H36.0642V14.712H35.8642ZM35.8642 19.768C35.8642 20.7292 35.9279 21.4351 36.0604 21.8767L36.252 21.8193C36.1285 21.4076 36.0642 20.7268 36.0642 19.768H35.8642ZM36.0608 21.8781C36.1956 22.3047 36.4368 22.5992 36.7911 22.7409L36.8653 22.5552C36.5796 22.4409 36.3728 22.202 36.2516 21.8179L36.0608 21.8781ZM36.7984 22.7435C37.1475 22.8526 37.6338 22.9495 38.2545 23.0351L38.2819 22.837C37.6653 22.7519 37.1916 22.6568 36.858 22.5526L36.7984 22.7435ZM38.2558 23.0352L38.7678 23.0992L38.7926 22.9008L38.2806 22.8368L38.2558 23.0352ZM38.6802 23V23.736H38.8802V23H38.6802ZM38.7826 23.636L34.8466 23.54L34.8418 23.74L38.7778 23.836L38.7826 23.636ZM34.8418 23.54L30.9058 23.636L30.9106 23.836L34.8466 23.74L34.8418 23.54ZM43.4395 23.736H43.3395V23.8385L43.4419 23.836L43.4395 23.736ZM43.4395 23L43.4271 22.9008L43.3395 22.9117V23H43.4395ZM43.9515 22.936L43.9639 23.0352L43.9651 23.0351L43.9515 22.936ZM45.3595 22.648L45.3911 22.7429L45.3946 22.7416L45.3595 22.648ZM46.0635 21.848L46.1588 21.8781L46.1592 21.8767L46.0635 21.848ZM45.9035 11.288L45.816 11.3366L45.8181 11.3402L45.9035 11.288ZM44.9435 10.584L44.9192 10.6811L44.9238 10.6821L44.9435 10.584ZM43.4395 10.424H43.3395V10.524H43.4395V10.424ZM43.4395 9.68801V9.58801H43.3395V9.68801H43.4395ZM45.9675 9.59201L45.9753 9.6917L45.9675 9.59201ZM48.4955 9.30401L48.595 9.31354L48.6071 9.18661L48.481 9.20507L48.4955 9.30401ZM48.1435 12.984L48.0439 12.9745L48.0334 13.084H48.1435V12.984ZM48.2715 12.984V13.084H48.3439L48.3665 13.0152L48.2715 12.984ZM53.9995 9.78401L53.9162 9.8395L53.9175 9.84136L53.9995 9.78401ZM54.0315 12.184L54.1047 12.2521L54.0315 12.184ZM51.8875 12.312L51.8202 12.386L51.8875 12.312ZM51.5995 10.968L51.5041 10.9362L51.5018 10.9463L51.5995 10.968ZM50.2875 10.616L50.2244 10.5384L50.222 10.5404L50.2875 10.616ZM49.4555 11.768L49.3652 11.7249L49.3651 11.7252L49.4555 11.768ZM48.4955 14.712L48.3971 14.6938L48.3955 14.7028V14.712H48.4955ZM48.6875 21.848L48.5917 21.8768L48.5921 21.8781L48.6875 21.848ZM49.3595 22.648L49.3222 22.7411L49.3296 22.7435L49.3595 22.648ZM50.7995 22.936L50.7858 23.0351L50.7871 23.0352L50.7995 22.936ZM51.3115 23H51.4115V22.9117L51.3239 22.9008L51.3115 23ZM51.3115 23.736L51.309 23.836L51.4115 23.8385V23.736H51.3115ZM47.3755 23.64L47.3779 23.5399L47.373 23.54L47.3755 23.64ZM43.5395 23.736V23H43.3395V23.736H43.5395ZM43.4519 23.0992L43.9639 23.0352L43.9391 22.8368L43.4271 22.9008L43.4519 23.0992ZM43.9651 23.0351C44.5857 22.9495 45.0622 22.8525 45.3911 22.7429L45.3278 22.5531C45.0167 22.6569 44.5546 22.7519 43.9378 22.837L43.9651 23.0351ZM45.3946 22.7416C45.7697 22.601 46.0233 22.3073 46.1588 21.8781L45.9681 21.8179C45.8476 22.1994 45.6319 22.439 45.3243 22.5544L45.3946 22.7416ZM46.1592 21.8767C46.2917 21.4351 46.3555 20.7292 46.3555 19.768H46.1555C46.1555 20.7268 46.0912 21.4076 45.9677 21.8193L46.1592 21.8767ZM46.3555 19.768V13.112H46.1555V19.768H46.3555ZM46.3555 13.112C46.3555 12.2749 46.2382 11.644 45.9888 11.2359L45.8181 11.3402C46.0381 11.7001 46.1555 12.2851 46.1555 13.112H46.3555ZM45.9909 11.2395C45.7635 10.8301 45.4188 10.5771 44.9631 10.486L44.9238 10.6821C45.3214 10.7616 45.6168 10.9779 45.816 11.3366L45.9909 11.2395ZM44.9677 10.487C44.5311 10.3778 44.0213 10.324 43.4395 10.324V10.524C44.0096 10.524 44.5025 10.5768 44.9192 10.681L44.9677 10.487ZM43.5395 10.424V9.68801H43.3395V10.424H43.5395ZM43.4395 9.78801C44.3166 9.78801 45.1619 9.75593 45.9753 9.6917L45.9596 9.49232C45.1517 9.5561 44.3117 9.58801 43.4395 9.58801V9.78801ZM45.9753 9.6917C46.7884 9.62752 47.6333 9.53125 48.5099 9.40296L48.481 9.20507C47.6083 9.33277 46.7679 9.42851 45.9596 9.49232L45.9753 9.6917ZM48.3959 9.29449L48.0439 12.9745L48.243 12.9935L48.595 9.31354L48.3959 9.29449ZM48.1435 13.084H48.2715V12.884H48.1435V13.084ZM48.3665 13.0152C48.8335 11.5928 49.4021 10.6109 50.0639 10.0524L49.935 9.89959C49.2315 10.4932 48.6481 11.5166 48.1764 12.9528L48.3665 13.0152ZM50.0639 10.0524C50.7311 9.48954 51.4448 9.21201 52.2075 9.21201V9.01201C51.3914 9.01201 50.6332 9.31049 49.935 9.89959L50.0639 10.0524ZM52.2075 9.21201C53.0925 9.21201 53.6458 9.43388 53.9163 9.83948L54.0827 9.72854C53.7557 9.23815 53.1144 9.01201 52.2075 9.01201V9.21201ZM53.9175 9.84136C54.2078 10.256 54.3475 10.6523 54.3475 11.032H54.5475C54.5475 10.601 54.3885 10.1654 54.0814 9.72667L53.9175 9.84136ZM54.3475 11.032C54.3475 11.4802 54.2157 11.8386 53.9582 12.116L54.1047 12.2521C54.4018 11.9321 54.5475 11.5225 54.5475 11.032H54.3475ZM53.9582 12.116C53.7027 12.3911 53.3576 12.532 52.9115 12.532V12.732C53.404 12.732 53.8055 12.5743 54.1047 12.2521L53.9582 12.116ZM52.9115 12.532C52.4781 12.532 52.1646 12.4288 51.9547 12.238L51.8202 12.386C52.0796 12.6219 52.4488 12.732 52.9115 12.732V12.532ZM51.9547 12.238C51.7376 12.0406 51.6355 11.821 51.6355 11.576H51.4355C51.4355 11.8857 51.568 12.1567 51.8202 12.386L51.9547 12.238ZM51.6355 11.576C51.6355 11.3694 51.6561 11.174 51.6971 10.9897L51.5018 10.9463C51.4575 11.146 51.4355 11.356 51.4355 11.576H51.6355ZM51.6943 10.9996C51.7593 10.8049 51.7955 10.6432 51.7955 10.52H51.5955C51.5955 10.6102 51.5677 10.7472 51.5046 10.9364L51.6943 10.9996ZM51.7955 10.52C51.7955 10.3871 51.7471 10.274 51.6416 10.1986C51.5423 10.1277 51.4057 10.1 51.2475 10.1V10.3C51.3879 10.3 51.4753 10.3256 51.5253 10.3614C51.5692 10.3927 51.5955 10.4396 51.5955 10.52H51.7955ZM51.2475 10.1C50.9172 10.1 50.5754 10.2532 50.2244 10.5384L50.3505 10.6936C50.6822 10.4242 50.9804 10.3 51.2475 10.3V10.1ZM50.222 10.5404C49.8891 10.8289 49.6042 11.2252 49.3652 11.7249L49.5457 11.8112C49.776 11.3295 50.0458 10.9578 50.353 10.6916L50.222 10.5404ZM49.3651 11.7252C49.1713 12.1342 48.9887 12.5856 48.817 13.0792L49.0059 13.1449C49.1756 12.6571 49.3556 12.2125 49.5458 11.8108L49.3651 11.7252ZM48.817 13.0792C48.6445 13.5752 48.5046 14.1134 48.3971 14.6938L48.5938 14.7302C48.6996 14.1586 48.8371 13.6302 49.0059 13.1449L48.817 13.0792ZM48.3955 14.712V19.768H48.5955V14.712H48.3955ZM48.3955 19.768C48.3955 20.7292 48.4592 21.4351 48.5917 21.8767L48.7832 21.8193C48.6597 21.4076 48.5955 20.7268 48.5955 19.768H48.3955ZM48.5921 21.8781C48.7268 22.3047 48.9681 22.5992 49.3223 22.7409L49.3966 22.5552C49.1108 22.4409 48.9041 22.202 48.7828 21.8179L48.5921 21.8781ZM49.3296 22.7435C49.6787 22.8526 50.165 22.9495 50.7858 23.0351L50.8131 22.837C50.1965 22.7519 49.7228 22.6568 49.3893 22.5526L49.3296 22.7435ZM50.7871 23.0352L51.2991 23.0992L51.3239 22.9008L50.8119 22.8368L50.7871 23.0352ZM51.2115 23V23.736H51.4115V23H51.2115ZM51.3139 23.636L47.3779 23.54L47.373 23.74L51.309 23.836L51.3139 23.636ZM47.373 23.54L43.437 23.636L43.4419 23.836L47.3779 23.74L47.373 23.54ZM55.9707 23.736H55.8707V23.8385L55.9731 23.836L55.9707 23.736ZM55.9707 23L55.9583 22.9008L55.8707 22.9117V23H55.9707ZM56.4827 22.936L56.4951 23.0352L56.4964 23.0351L56.4827 22.936ZM57.8907 22.648L57.9224 22.7429L57.9258 22.7416L57.8907 22.648ZM58.5947 21.848L58.6901 21.8781L58.6905 21.8767L58.5947 21.848ZM58.0827 10.904L58.0245 10.9855L58.029 10.9884L58.0827 10.904ZM55.9707 10.424H55.8707V10.524H55.9707V10.424ZM55.9707 9.68801V9.58801H55.8707V9.68801H55.9707ZM58.4987 9.62401L58.504 9.72391L58.5066 9.7237L58.4987 9.62401ZM61.0267 9.30401H61.1267V9.18549L61.0099 9.20544L61.0267 9.30401ZM61.2187 21.848L61.1229 21.8768L61.1233 21.8781L61.2187 21.848ZM61.8907 22.648L61.8535 22.7411L61.8609 22.7435L61.8907 22.648ZM63.3307 22.936L63.317 23.0351L63.3183 23.0352L63.3307 22.936ZM63.8427 23H63.9427V22.9117L63.8551 22.9008L63.8427 23ZM63.8427 23.736L63.8403 23.836L63.9427 23.8385V23.736H63.8427ZM59.9067 23.64L59.9091 23.5399L59.9043 23.54L59.9067 23.64ZM58.2107 2.23201L58.2857 2.2982L58.2875 2.29603L58.2107 2.23201ZM60.8667 2.23201L60.7855 2.29068L60.7895 2.29558L60.8667 2.23201ZM60.8667 4.98401L60.7877 4.92258L60.7856 4.92547L60.8667 4.98401ZM56.0707 23.736V23H55.8707V23.736H56.0707ZM55.9831 23.0992L56.4951 23.0352L56.4703 22.8368L55.9583 22.9008L55.9831 23.0992ZM56.4964 23.0351C57.1169 22.9495 57.5935 22.8525 57.9223 22.7429L57.8591 22.5531C57.5479 22.6569 57.0858 22.7519 56.469 22.837L56.4964 23.0351ZM57.9258 22.7416C58.3009 22.601 58.5545 22.3073 58.6901 21.8781L58.4993 21.8179C58.3789 22.1994 58.1632 22.439 57.8556 22.5544L57.9258 22.7416ZM58.6905 21.8767C58.823 21.4351 58.8867 20.7292 58.8867 19.768H58.6867C58.6867 20.7268 58.6224 21.4076 58.4989 21.8193L58.6905 21.8767ZM58.8867 19.768V13.016H58.6867V19.768H58.8867ZM58.8867 13.016C58.8867 12.4554 58.8275 11.9903 58.7056 11.6244C58.5834 11.2579 58.3961 10.9849 58.1364 10.8196L58.029 10.9884C58.2387 11.1218 58.4033 11.3501 58.5158 11.6876C58.6285 12.0257 58.6867 12.4673 58.6867 13.016H58.8867ZM58.1408 10.8226C57.6696 10.486 57.0168 10.324 56.1947 10.324V10.524C56.9939 10.524 57.5998 10.682 58.0246 10.9854L58.1408 10.8226ZM56.1947 10.324H55.9707V10.524H56.1947V10.324ZM56.0707 10.424V9.68801H55.8707V10.424H56.0707ZM55.9707 9.78801C56.847 9.78801 57.6914 9.76664 58.504 9.72388L58.4935 9.52415C57.6847 9.56672 56.8438 9.58801 55.9707 9.58801V9.78801ZM58.5066 9.7237C59.3205 9.65945 60.1662 9.55238 61.0435 9.40259L61.0099 9.20544C60.1379 9.35431 59.2982 9.46058 58.4908 9.52432L58.5066 9.7237ZM60.9267 9.30401V19.768H61.1267V9.30401H60.9267ZM60.9267 19.768C60.9267 20.7292 60.9904 21.4351 61.1229 21.8767L61.3145 21.8193C61.191 21.4076 61.1267 20.7268 61.1267 19.768H60.9267ZM61.1233 21.8781C61.2581 22.3047 61.4993 22.5992 61.8536 22.7409L61.9278 22.5552C61.6421 22.4409 61.4353 22.202 61.3141 21.8179L61.1233 21.8781ZM61.8609 22.7435C62.21 22.8526 62.6963 22.9495 63.317 23.0351L63.3444 22.837C62.7278 22.7519 62.2541 22.6568 61.9205 22.5526L61.8609 22.7435ZM63.3183 23.0352L63.8303 23.0992L63.8551 22.9008L63.3431 22.8368L63.3183 23.0352ZM63.7427 23V23.736H63.9427V23H63.7427ZM63.8451 23.636L59.9091 23.54L59.9043 23.74L63.8403 23.836L63.8451 23.636ZM59.9043 23.54L55.9683 23.636L55.9731 23.836L59.9091 23.74L59.9043 23.54ZM59.5227 5.46001C58.994 5.46001 58.5863 5.27852 58.2875 4.92L58.1339 5.04803C58.4751 5.45751 58.942 5.66002 59.5227 5.66002V5.46001ZM58.2875 4.92C57.9836 4.55522 57.8307 4.11964 57.8307 3.60801H57.6307C57.6307 4.16305 57.7979 4.6448 58.1339 5.04803L58.2875 4.92ZM57.8307 3.60801C57.8307 3.0739 57.9842 2.6399 58.2857 2.29818L58.1357 2.16585C57.7972 2.54946 57.6307 3.03279 57.6307 3.60801H57.8307ZM58.2875 2.29603C58.5863 1.93751 58.994 1.75601 59.5227 1.75601V1.55601C58.942 1.55601 58.4751 1.75851 58.1339 2.168L58.2875 2.29603ZM59.5227 1.75601C60.1201 1.75601 60.5326 1.94027 60.7856 2.29056L60.9478 2.17346C60.6461 1.75576 60.1627 1.55601 59.5227 1.55601V1.75601ZM60.7895 2.29558C61.0709 2.63723 61.2147 3.07216 61.2147 3.60801H61.4147C61.4147 3.03453 61.2599 2.55213 60.9439 2.16844L60.7895 2.29558ZM61.2147 3.60801C61.2147 4.12138 61.0715 4.55789 60.7878 4.92262L60.9456 5.04541C61.2593 4.64214 61.4147 4.16131 61.4147 3.60801H61.2147ZM60.7856 4.92547C60.5326 5.27576 60.1201 5.46001 59.5227 5.46001V5.66002C60.1627 5.66002 60.6461 5.46027 60.9478 5.04256L60.7856 4.92547ZM65.0645 23.736H64.9645V23.8385L65.0669 23.836L65.0645 23.736ZM65.0645 23L65.0521 22.9008L64.9645 22.9117V23H65.0645ZM65.5765 22.936L65.5889 23.0352L65.5901 23.0351L65.5765 22.936ZM66.9845 22.648L67.0161 22.7429L67.0196 22.7416L66.9845 22.648ZM67.6885 21.848L67.7838 21.8781L67.7842 21.8767L67.6885 21.848ZM67.1765 10.904L67.1182 10.9855L67.1228 10.9884L67.1765 10.904ZM65.0645 10.424H64.9645V10.524H65.0645V10.424ZM65.0645 9.68801V9.58801H64.9645V9.68801H65.0645ZM67.5925 9.62401L67.5977 9.72391L67.6003 9.7237L67.5925 9.62401ZM70.1205 9.30401H70.2205V9.18549L70.1036 9.20544L70.1205 9.30401ZM70.1205 11.896H70.0205V12.2223L70.2033 11.952L70.1205 11.896ZM72.2005 9.97601L72.2531 10.0611L72.2545 10.0601L72.2005 9.97601ZM78.7605 10.232L78.6936 10.3065L78.6957 10.3082L78.7605 10.232ZM80.2325 21.848L80.1367 21.8768L80.1371 21.8781L80.2325 21.848ZM80.9045 22.648L80.8672 22.7411L80.8746 22.7435L80.9045 22.648ZM82.3445 22.936L82.3308 23.0351L82.3321 23.0352L82.3445 22.936ZM82.8565 23H82.9565V22.9117L82.8689 22.9008L82.8565 23ZM82.8565 23.736L82.854 23.836L82.9565 23.8385V23.736H82.8565ZM78.9205 23.64L78.9229 23.5399L78.918 23.54L78.9205 23.64ZM74.9845 23.736H74.8845V23.8385L74.9869 23.836L74.9845 23.736ZM74.9845 23L74.9721 22.9008L74.8845 22.9117V23H74.9845ZM75.4965 22.936L75.5089 23.0352L75.5101 23.0351L75.4965 22.936ZM76.9045 22.648L76.9361 22.7429L76.9396 22.7416L76.9045 22.648ZM77.6085 21.848L77.7038 21.8781L77.7042 21.8767L77.6085 21.848ZM76.9685 10.936L76.8964 11.0054L76.8977 11.0067L76.9685 10.936ZM72.5525 10.616L72.6008 10.7036L72.603 10.7023L72.5525 10.616ZM71.0165 11.896L71.0949 11.9581L71.0165 11.896ZM70.1205 13.368L70.0279 13.3302L70.0205 13.3484V13.368H70.1205ZM70.3125 21.848L70.2167 21.8768L70.2171 21.8781L70.3125 21.848ZM70.9845 22.648L70.9472 22.7411L70.9546 22.7435L70.9845 22.648ZM72.4245 22.936L72.4108 23.0351L72.4121 23.0352L72.4245 22.936ZM72.9365 23H73.0365V22.9117L72.9489 22.9008L72.9365 23ZM72.9365 23.736L72.934 23.836L73.0365 23.8385V23.736H72.9365ZM69.0005 23.64L69.0029 23.5399L68.998 23.54L69.0005 23.64ZM65.1645 23.736V23H64.9645V23.736H65.1645ZM65.0769 23.0992L65.5889 23.0352L65.5641 22.8368L65.0521 22.9008L65.0769 23.0992ZM65.5901 23.0351C66.2107 22.9495 66.6872 22.8525 67.0161 22.7429L66.9528 22.5531C66.6417 22.6569 66.1796 22.7519 65.5628 22.837L65.5901 23.0351ZM67.0196 22.7416C67.3947 22.601 67.6483 22.3073 67.7838 21.8781L67.5931 21.8179C67.4726 22.1994 67.2569 22.439 66.9493 22.5544L67.0196 22.7416ZM67.7842 21.8767C67.9167 21.4351 67.9805 20.7292 67.9805 19.768H67.7805C67.7805 20.7268 67.7162 21.4076 67.5927 21.8193L67.7842 21.8767ZM67.9805 19.768V13.016H67.7805V19.768H67.9805ZM67.9805 13.016C67.9805 12.4554 67.9213 11.9903 67.7993 11.6244C67.6772 11.2579 67.4898 10.9849 67.2301 10.8196L67.1228 10.9884C67.3324 11.1218 67.4971 11.3501 67.6096 11.6876C67.7223 12.0257 67.7805 12.4673 67.7805 13.016H67.9805ZM67.2346 10.8226C66.7633 10.486 66.1106 10.324 65.2885 10.324V10.524C66.0877 10.524 66.6936 10.682 67.1183 10.9854L67.2346 10.8226ZM65.2885 10.324H65.0645V10.524H65.2885V10.324ZM65.1645 10.424V9.68801H64.9645V10.424H65.1645ZM65.0645 9.78801C65.9407 9.78801 66.7852 9.76664 67.5977 9.72388L67.5872 9.52415C66.7784 9.56672 65.9375 9.58801 65.0645 9.58801V9.78801ZM67.6003 9.7237C68.4143 9.65945 69.2599 9.55238 70.1373 9.40259L70.1036 9.20544C69.2317 9.35431 68.392 9.46058 67.5846 9.52432L67.6003 9.7237ZM70.0205 9.30401V11.896H70.2205V9.30401H70.0205ZM70.2033 11.952C70.6846 11.2405 71.3667 10.6098 72.2531 10.061L72.1478 9.89099C71.2422 10.4516 70.5376 11.1008 70.0376 11.84L70.2033 11.952ZM72.2545 10.0601C73.1325 9.49573 74.1586 9.21201 75.3365 9.21201V9.01201C74.125 9.01201 73.0604 9.3043 72.1464 9.8919L72.2545 10.0601ZM75.3365 9.21201C76.77 9.21201 77.8849 9.58066 78.6937 10.3064L78.8272 10.1576C77.972 9.39004 76.8042 9.01201 75.3365 9.01201V9.21201ZM78.6957 10.3082C79.5218 11.0104 79.9405 12.025 79.9405 13.368H80.1405C80.1405 11.9804 79.7058 10.9043 78.8252 10.1558L78.6957 10.3082ZM79.9405 13.368V19.768H80.1405V13.368H79.9405ZM79.9405 19.768C79.9405 20.7292 80.0042 21.4351 80.1367 21.8767L80.3282 21.8193C80.2047 21.4076 80.1405 20.7268 80.1405 19.768H79.9405ZM80.1371 21.8781C80.2718 22.3047 80.5131 22.5992 80.8673 22.7409L80.9416 22.5552C80.6558 22.4409 80.4491 22.202 80.3278 21.8179L80.1371 21.8781ZM80.8746 22.7435C81.2237 22.8526 81.71 22.9495 82.3308 23.0351L82.3581 22.837C81.7415 22.7519 81.2678 22.6568 80.9343 22.5526L80.8746 22.7435ZM82.3321 23.0352L82.8441 23.0992L82.8689 22.9008L82.3569 22.8368L82.3321 23.0352ZM82.7565 23V23.736H82.9565V23H82.7565ZM82.8589 23.636L78.9229 23.54L78.918 23.74L82.854 23.836L82.8589 23.636ZM78.918 23.54L74.982 23.636L74.9869 23.836L78.9229 23.74L78.918 23.54ZM75.0845 23.736V23H74.8845V23.736H75.0845ZM74.9969 23.0992L75.5089 23.0352L75.4841 22.8368L74.9721 22.9008L74.9969 23.0992ZM75.5101 23.0351C76.1307 22.9495 76.6072 22.8525 76.9361 22.7429L76.8728 22.5531C76.5617 22.6569 76.0996 22.7519 75.4828 22.837L75.5101 23.0351ZM76.9396 22.7416C77.3147 22.601 77.5683 22.3073 77.7038 21.8781L77.5131 21.8179C77.3926 22.1994 77.1769 22.439 76.8693 22.5544L76.9396 22.7416ZM77.7042 21.8767C77.8367 21.4351 77.9005 20.7292 77.9005 19.768H77.7005C77.7005 20.7268 77.6362 21.4076 77.5127 21.8193L77.7042 21.8767ZM77.9005 19.768V13.368H77.7005V19.768H77.9005ZM77.9005 13.368C77.9005 12.2846 77.6185 11.4447 77.0392 10.8653L76.8977 11.0067C77.4277 11.5367 77.7005 12.3181 77.7005 13.368H77.9005ZM77.0405 10.8666C76.4624 10.2664 75.655 9.97201 74.6325 9.97201V10.172C75.6153 10.172 76.3652 10.4537 76.8964 11.0054L77.0405 10.8666ZM74.6325 9.97201C73.848 9.97201 73.137 10.1574 72.5019 10.5297L72.603 10.7023C73.2053 10.3492 73.8809 10.172 74.6325 10.172V9.97201ZM72.5042 10.5285C71.8748 10.8757 71.3523 11.3107 70.938 11.8339L71.0949 11.9581C71.4913 11.4573 71.9928 11.039 72.6008 10.7036L72.5042 10.5285ZM70.938 11.8339C70.5285 12.3513 70.2243 12.85 70.0279 13.3302L70.213 13.4059C70.4006 12.9473 70.6938 12.4647 71.0949 11.9581L70.938 11.8339ZM70.0205 13.368V19.768H70.2205V13.368H70.0205ZM70.0205 19.768C70.0205 20.7292 70.0842 21.4351 70.2167 21.8767L70.4082 21.8193C70.2847 21.4076 70.2205 20.7268 70.2205 19.768H70.0205ZM70.2171 21.8781C70.3518 22.3047 70.5931 22.5992 70.9473 22.7409L71.0216 22.5552C70.7358 22.4409 70.5291 22.202 70.4078 21.8179L70.2171 21.8781ZM70.9546 22.7435C71.3037 22.8526 71.79 22.9495 72.4108 23.0351L72.4381 22.837C71.8215 22.7519 71.3478 22.6568 71.0143 22.5526L70.9546 22.7435ZM72.4121 23.0352L72.9241 23.0992L72.9489 22.9008L72.4369 22.8368L72.4121 23.0352ZM72.8365 23V23.736H73.0365V23H72.8365ZM72.9389 23.636L69.0029 23.54L68.998 23.74L72.934 23.836L72.9389 23.636ZM68.998 23.54L65.062 23.636L65.0669 23.836L69.0029 23.74L68.998 23.54Z" fill="black" mask="url(#path-1-outside-1_171_31)"/>
</svg>
